# xmcd
#
# Track frame offsets: 
#        150
#        15198
#        35888
#        51089
#        69095
#        82793
#        96888
#        114834
#        126743
#        143949
#        161379
#        174138
#        187754
#        201966
#        216849
#
# Disc length: 3075 seconds
#
# Revision: 0
# Processed by: cddbd v1.5.2PL0 Copyright (c) Steve Scherf et al.
# Submitted via: ExactAudioCopy v0.99pb4
#
DISCID=be0c010f
DTITLE=Various Artist - Country Heat Summer BBQ 2
DYEAR=2010
DGENRE=Country
TTITLE0=Kenny Chesney - Out Last Night
TTITLE1=Brad Paisley - American Saturday Night
TTITLE2=Dierks Bentley - Free And Easy (Down The Road I Go)
TTITLE3=Jason Blaine - Good Day To Get Gone
TTITLE4=Shane Yellowbird - Bare Feet On The Blacktop
TTITLE5=Joe Nichols - Tequila Makes Her Clothes Fall Off
TTITLE6=Zac Brown Band - Chicken Fried
TTITLE7=Alan Jackson - Little Bitty
TTITLE8=Sara Evans - Suds In The Bucket
TTITLE9=Terri Clark - Gypsy Boots
TTITLE10=Brooks and Dunn - Tequila
TTITLE11=Craig Morgan - Bonfire
TTITLE12=Jake Owen - Eight Second Ride
TTITLE13=Gretchen Wilson - Here For The Party
TTITLE14=Keith Anderson - Pickin' Wildflowers
EXTD=
EXTT0=
EXTT1=
EXTT2=
EXTT3=
EXTT4=
EXTT5=
EXTT6=
EXTT7=
EXTT8=
EXTT9=
EXTT10=
EXTT11=
EXTT12=
EXTT13=
EXTT14=
PLAYORDER=
